<?xml version="1.0" standalone="no"?>
<!DOCTYPE svg PUBLIC "-//W3C//DTD SVG 20010904//EN"
 "http://www.w3.org/TR/2001/REC-SVG-20010904/DTD/svg10.dtd">
<svg version="1.0" xmlns="http://www.w3.org/2000/svg"
 width="100.000000pt" height="100.000000pt" viewBox="0 0 100.000000 100.000000"
 preserveAspectRatio="xMidYMid meet">

<g transform="translate(0.000000,100.000000) scale(0.100000,-0.100000)"
fill="#000000" stroke="none">
<path d="M110 783 c0 -120 -3 -243 -6 -273 -6 -54 -6 -55 12 -37 17 16 19 39
22 272 3 226 1 255 -12 255 -14 0 -16 -27 -16 -217z"/>
<path d="M247 848 c-4 -83 -7 -182 -7 -220 0 -67 1 -69 23 -62 12 3 24 8 26
10 2 2 6 99 9 214 l5 210 -25 0 -25 0 -6 -152z"/>
<path d="M600 986 c0 -13 20 -26 41 -26 5 0 9 9 9 20 0 15 -7 20 -25 20 -15 0
-25 -6 -25 -14z"/>
<path d="M660 978 c0 -13 8 -18 25 -18 17 0 25 5 25 18 0 13 -8 18 -25 18 -17
0 -25 -5 -25 -18z"/>
<path d="M920 953 c0 -27 -7 -165 -15 -307 -8 -143 -12 -263 -10 -267 3 -4 7
-25 10 -47 3 -22 25 -82 49 -134 l45 -93 0 448 1 447 -40 0 -40 0 0 -47z"/>
<path d="M456 965 c-47 -17 -73 -40 -98 -89 -18 -35 -19 -51 -13 -135 3 -53 7
-112 8 -133 1 -20 5 -34 10 -31 4 2 7 -1 7 -6 0 -20 3 -26 19 -39 9 -8 10 -11
4 -7 -24 12 -13 -3 22 -29 l35 -27 46 28 c86 52 120 105 95 145 -10 16 -7 24
19 54 28 33 43 93 19 78 -8 -5 -9 8 -4 44 15 108 -70 181 -169 147z m60 -65
c39 -12 41 -14 35 -43 -7 -34 -28 -47 -37 -23 -5 13 -10 13 -27 4 -29 -14 -28
-13 -21 -32 3 -9 13 -16 22 -16 8 0 13 -2 10 -5 -3 -4 -17 -3 -32 1 -18 4 -25
12 -23 26 1 14 -8 26 -27 37 -16 9 -28 20 -27 24 0 4 1 11 1 16 0 12 50 30 70
26 8 -2 33 -9 56 -15z m-82 -212 c6 -5 2 -8 -11 -8 -29 0 -37 15 -21 42 l13
23 3 -25 c2 -14 9 -28 16 -32z m74 13 c-14 -23 -39 -24 -46 -3 -2 7 2 10 11 6
8 -3 21 1 28 9 19 21 23 13 7 -12z"/>
<path d="M541 514 c-51 -28 -56 -32 -49 -39 7 -7 82 31 98 49 17 22 3 19 -49
-10z"/>
<path d="M683 365 c37 -26 48 -45 25 -45 -6 0 -3 -7 8 -15 10 -8 15 -15 9 -14
-44 6 -65 -23 -25 -34 11 -3 20 -10 20 -16 0 -14 -16 -14 -40 -1 -27 14 -36
-6 -14 -31 19 -21 6 -26 -26 -9 -14 7 -19 5 -23 -10 -3 -13 0 -20 8 -20 8 0
17 -5 21 -11 5 -8 -6 -9 -35 -4 -45 7 -55 -5 -18 -24 22 -11 22 -11 -3 -5 -19
4 -22 3 -10 -5 8 -6 40 -12 70 -13 l55 -2 -48 -3 c-47 -4 -57 -22 -14 -24 17
-1 15 -3 -8 -9 l-30 -8 35 -1 c19 0 47 6 63 13 29 16 38 4 10 -13 -10 -6 -13
-11 -8 -11 39 -2 200 -21 243 -28 48 -8 52 -7 52 10 0 16 -5 18 -35 12 -29 -5
-35 -3 -35 10 0 14 -9 16 -54 13 -52 -4 -54 -3 -47 17 9 25 4 44 -18 70 -15
18 -15 18 7 7 14 -8 22 -8 22 -1 0 5 -4 10 -8 10 -4 0 -16 14 -26 31 -18 31
-18 32 4 73 13 22 17 35 9 29 -7 -7 -19 -13 -27 -13 -12 0 -12 3 -1 17 10 11
10 14 2 9 -9 -5 -13 0 -13 16 0 21 -1 21 -17 6 -15 -16 -19 -14 -56 18 -22 19
-45 34 -51 34 -6 0 6 -11 27 -25z"/>
<path d="M173 359 c-7 -7 -8 -20 -3 -34 13 -33 1 -65 -28 -76 -23 -9 -24 -11
-7 -23 14 -10 16 -16 6 -34 -9 -17 -16 -20 -29 -13 -9 4 -24 6 -32 3 -11 -4
-11 0 3 16 18 20 18 20 -3 27 -17 5 -20 12 -16 30 7 29 -9 41 -30 24 -11 -9
-14 -22 -9 -43 12 -57 16 -162 5 -146 -8 13 -10 13 -10 -2 0 -9 -6 -18 -12
-21 -7 -2 12 -5 44 -6 58 -2 76 7 98 50 11 20 5 23 -32 20 -11 -1 -18 4 -18
14 0 11 6 14 25 9 20 -5 28 0 46 30 26 45 37 45 41 4 2 -26 10 -36 38 -50 41
-20 54 -22 45 -8 -3 6 1 10 11 10 13 0 12 4 -7 19 -13 10 -31 21 -39 24 -9 3
-10 6 -2 6 24 2 12 31 -13 31 -23 0 -25 4 -25 45 0 25 5 45 11 45 5 0 7 5 4
10 -4 6 9 17 27 26 32 15 11 14 -26 -2 -16 -6 -18 -4 -13 11 6 15 5 16 -8 5
-10 -8 -15 -9 -15 -1 0 14 -13 14 -27 0z"/>
<path d="M400 260 c19 -13 30 -13 30 0 0 6 -10 10 -22 10 -19 0 -20 -2 -8 -10z"/>
<path d="M448 263 c7 -3 16 -2 19 1 4 3 -2 6 -13 5 -11 0 -14 -3 -6 -6z"/>
<path d="M338 223 c7 -3 16 -2 19 1 4 3 -2 6 -13 5 -11 0 -14 -3 -6 -6z"/>
<path d="M466 150 c-16 -5 -33 -7 -37 -4 -4 2 -7 -4 -6 -15 1 -18 3 -19 32 -4
16 9 41 19 55 24 19 6 21 7 5 7 -11 0 -33 -4 -49 -8z"/>
<path d="M224 121 c6 -10 66 -33 66 -26 0 5 -56 35 -65 35 -3 0 -4 -4 -1 -9z"/>
<path d="M977 99 c7 -7 15 -10 18 -7 3 3 -2 9 -12 12 -14 6 -15 5 -6 -5z"/>
<path d="M230 82 c0 -4 10 -9 22 -9 18 -2 20 0 8 7 -18 12 -30 13 -30 2z"/>
</g>
</svg>
